<svg version="1.1" id="Layer_1" xmlns="http://www.w3.org/2000/svg" xmlns:xlink="http://www.w3.org/1999/xlink" x="0px" y="0px"
	 width="100%" viewBox="0 0 320 105" enable-background="new 0 0 320 105" xml:space="preserve">
<path fill="#FBFBFD" opacity="1.000000" stroke="none" 
	d="
M321.000000,65.000000 
	C321.000000,78.666748 321.000000,92.333504 321.000000,106.000000 
	C317.916901,106.000000 314.945007,106.000000 311.693695,105.689590 
	C312.703949,104.300804 315.248749,102.573845 315.080719,102.248756 
	C313.944397,100.049850 312.234375,98.147415 311.408966,97.065445 
	C312.855682,94.342583 314.300964,91.622459 316.044312,88.341370 
	C313.720215,88.132881 312.124420,87.914070 310.523041,87.860176 
	C305.619141,87.695152 304.592194,88.874214 304.713684,93.941734 
	C304.766022,96.124283 304.197510,98.340172 304.399628,100.495079 
	C304.574921,102.363647 305.439880,104.167526 306.000000,106.000000 
	C204.333328,106.000000 102.666641,106.000000 1.000000,106.000000 
	C1.000000,94.908859 1.000000,83.923088 1.320578,72.609993 
	C8.782552,78.740074 24.699257,79.171997 32.244488,72.795601 
	C34.295513,71.062309 36.067223,68.533203 36.985477,66.011833 
	C39.764301,58.381664 36.831848,51.319023 29.549084,47.595554 
	C25.573681,45.563046 21.204197,44.261341 17.361839,42.028728 
	C15.872919,41.163589 14.351112,38.434391 14.660240,36.926712 
	C14.979921,35.367561 17.442123,33.265057 19.076714,33.163445 
	C22.442795,32.954197 25.907301,33.790749 29.280233,34.455944 
	C30.967262,34.788651 32.541988,35.690811 34.234451,36.361958 
	C36.443146,27.617413 35.197350,25.446005 27.447065,23.908762 
	C16.154518,21.668921 6.805941,24.126837 1.000000,35.000000 
	C1.000000,23.701696 1.000000,12.403392 1.000000,1.000000 
	C36.687496,1.000000 72.375092,1.000000 108.628029,1.245287 
	C109.114502,1.647653 109.035629,1.804733 108.972473,1.982389 
	C108.988205,2.002966 108.968658,1.958887 108.577003,2.043414 
	C107.863731,3.367680 107.264854,4.606712 107.261688,5.847266 
	C107.205627,27.803829 107.189629,49.760742 107.301178,71.716888 
	C107.308083,73.075981 108.441879,74.429352 109.492783,75.913895 
	C112.249878,76.095673 114.566734,76.119301 116.881004,76.209358 
	C120.126808,76.335670 121.064987,74.754013 121.049889,71.619965 
	C120.944450,49.733177 121.058578,27.845064 120.864319,5.959486 
	C120.849571,4.297979 118.997841,2.652777 118.000000,0.999998 
	C185.552200,1.000000 253.104385,1.000000 321.000000,1.000000 
	C321.000000,19.352800 321.000000,37.707741 320.703552,56.348091 
	C318.084137,48.782764 311.115601,46.823757 304.664734,44.177505 
	C301.194946,42.754143 296.817749,41.890354 297.431519,36.768871 
	C297.836060,33.392998 302.532440,31.896833 308.098297,33.123714 
	C310.030853,33.549694 311.866577,34.408360 313.754333,35.046360 
	C314.938629,35.446613 316.137421,35.803940 317.378387,36.195911 
	C319.234619,27.177896 318.045898,24.866215 309.700867,23.900074 
	C304.874176,23.341269 299.657837,23.558699 294.988525,24.811810 
	C287.175568,26.908588 283.686157,33.380184 284.747772,41.369061 
	C285.398163,46.262924 288.115875,49.666065 292.351898,51.800522 
	C296.202484,53.740761 300.427490,54.998154 304.102692,57.199024 
	C305.766083,58.195122 307.723206,61.068527 307.344727,62.513424 
	C306.860443,64.362480 304.213135,66.810249 302.392059,66.902184 
	C298.559998,67.095642 294.624786,66.077934 290.801147,65.240929 
	C288.982880,64.842911 287.323334,63.719936 285.557098,62.909389 
	C283.136627,69.523941 283.980652,73.041130 288.097290,74.964043 
	C300.806183,80.900467 314.315369,76.809441 321.000000,65.000000 
M147.508301,25.277302 
	C143.241699,23.827459 138.992081,22.671320 134.687119,26.892584 
	C134.759613,42.588932 134.832108,58.285282 134.774277,74.558250 
	C135.180679,74.926659 135.587097,75.295074 136.856674,76.013702 
	C139.504822,76.051712 142.219406,76.447632 144.772491,75.973625 
	C146.010712,75.743729 147.871399,73.890289 147.879364,72.760796 
	C147.989258,57.173004 147.825546,41.583282 147.508301,25.277302 
M214.199814,73.083206 
	C214.210602,58.474472 214.092590,43.863773 214.315475,29.258276 
	C214.377365,25.203285 212.680786,23.933493 209.071411,24.066864 
	C207.579391,24.121996 206.075836,24.013428 204.593597,24.151690 
	C202.194229,24.375498 200.766449,25.299959 200.805481,28.203428 
	C201.001694,42.804337 201.003525,57.407864 200.912491,72.756836 
	C201.237045,73.631157 201.561615,74.505470 202.521133,75.907166 
	C206.053284,75.770554 209.585434,75.633942 213.700958,75.202637 
	C213.798172,74.802055 213.895401,74.401482 214.199814,73.083206 
M161.752182,73.661293 
	C161.916000,74.084175 162.079803,74.507057 162.691498,75.622871 
	C165.153534,75.845123 167.612762,76.106995 170.078247,76.280365 
	C173.807938,76.542633 175.357925,75.113205 175.181686,71.048332 
	C174.843658,63.252129 174.955185,55.427555 175.166901,47.622524 
	C175.221161,45.622135 176.008011,43.451012 177.041321,41.702976 
	C180.344894,36.114403 185.192322,34.216038 192.275009,37.915249 
	C192.275009,33.699036 192.189880,30.927567 192.296585,28.163506 
	C192.429871,24.710583 190.983765,24.108416 187.539902,23.760447 
	C180.942566,23.093859 177.220200,26.874115 174.334686,30.365612 
	C172.908127,28.188776 171.997253,25.260462 170.118973,24.367880 
	C168.262466,23.485659 165.428619,24.660093 162.432251,24.998476 
	C162.284866,25.334112 162.137482,25.669748 161.682190,26.898308 
	C161.760422,42.257259 161.838654,57.616215 161.752182,73.661293 
M227.887222,59.501320 
	C227.946304,59.662979 228.005386,59.824638 227.940399,60.796177 
	C230.001190,78.455795 243.576599,82.110245 261.090240,70.118462 
	C261.996307,72.042412 262.627014,75.451797 263.938507,75.737648 
	C266.708771,76.341438 269.834961,75.312096 273.234253,74.153839 
	C273.189301,71.755386 273.144348,69.356941 273.349274,66.054787 
	C273.238983,52.705967 273.128693,39.357147 273.008362,25.424894 
	C272.671051,25.283123 272.333740,25.141352 271.358185,24.476086 
	C269.547424,24.337009 267.734528,24.221199 265.926331,24.054228 
	C261.553589,23.650440 259.651703,25.179422 259.902710,29.993071 
	C260.309784,37.799049 260.015381,45.641735 260.012421,53.468925 
	C260.010498,58.581993 256.971558,63.034588 252.214493,64.909439 
	C247.678970,66.696991 243.328079,64.694817 241.991638,59.933277 
	C241.371826,57.724937 241.139114,55.349163 241.109818,53.044479 
	C241.006073,44.885513 241.204865,36.719883 240.936584,28.568377 
	C240.887787,27.085472 239.312744,24.544292 238.218201,24.416910 
	C235.209641,24.066774 232.082016,24.739721 228.445480,25.038963 
	C228.316147,25.355738 228.186798,25.672512 227.769379,26.889414 
	C227.853790,37.593952 227.938202,48.298492 227.887222,59.501320 
M45.339718,54.073639 
	C46.203239,64.921600 50.273373,73.754486 61.844547,76.227913 
	C80.674858,80.253036 96.352661,73.056671 96.726921,49.802975 
	C96.893005,39.483181 94.441040,29.702345 83.397072,25.158119 
	C63.588345,17.007484 45.547474,28.902895 45.269897,50.190208 
	C45.256882,51.188480 45.283508,52.187267 45.339718,54.073639 
M149.073715,9.591453 
	C148.263412,4.044420 146.385895,2.625390 140.313599,2.970544 
	C135.323334,3.254195 133.505325,5.163018 133.502319,10.131954 
	C133.499741,14.380898 135.059753,16.977713 139.851700,17.103569 
	C146.497406,17.278114 148.234451,16.191666 149.073715,9.591453 
M204.066544,16.886318 
	C207.738434,16.835556 211.884277,18.374676 214.481415,14.356825 
	C216.384415,11.412826 215.285965,5.461749 212.826111,3.940358 
	C209.655869,1.979596 202.617706,2.849902 200.856796,5.420423 
	C198.614395,8.693827 199.755341,14.090666 204.066544,16.886318 
M284.287476,90.781532 
	C284.286591,91.939560 284.082703,93.142563 284.327301,94.246201 
	C284.830017,96.514671 285.572693,98.729965 286.216583,100.967133 
	C286.782196,98.814262 287.185181,96.599503 287.972260,94.530884 
	C288.473663,93.213104 289.544495,92.111969 290.360016,90.913696 
	C291.016083,92.051300 291.839600,93.126549 292.291473,94.340187 
	C293.097534,96.504997 293.679108,98.753403 294.354553,100.966843 
	C294.859314,98.427315 295.846802,95.861107 295.708405,93.357132 
	C295.606903,91.521042 294.110718,88.310364 293.092468,88.252754 
	C290.205750,88.089470 287.245270,89.230560 284.287476,90.781532 
M226.861694,95.206841 
	C226.858856,93.710762 227.099396,92.158463 226.771164,90.737549 
	C226.536240,89.720482 225.539261,88.879440 224.882294,87.959869 
	C224.302475,88.786087 223.297867,89.576698 223.225067,90.445412 
	C223.032043,92.748405 222.611389,95.367050 223.485458,97.321609 
	C224.218903,98.961693 226.500214,100.411743 228.369675,100.901031 
	C230.255936,101.394707 232.478928,100.601807 234.900192,100.334381 
	C234.900192,97.069466 235.016159,93.756882 234.821472,90.462654 
	C234.770569,89.601143 233.753906,88.796722 233.180771,87.966087 
	C232.551666,88.741524 231.539612,89.444504 231.376251,90.308044 
	C231.072205,91.915237 231.489731,93.662514 231.162369,95.260391 
	C230.963837,96.229401 229.931198,97.027527 229.273300,97.902420 
	C228.485748,97.296898 227.698212,96.691376 226.861694,95.206841 
M186.066315,90.032440 
	C186.067917,93.008469 185.969482,95.990471 186.146454,98.956039 
	C186.187088,99.637115 187.174255,100.261711 187.725830,100.912292 
	C188.266602,100.267395 189.181198,99.672211 189.274872,98.967850 
	C189.512817,97.178932 189.096222,95.272423 189.508865,93.548798 
	C189.753922,92.525246 191.073517,91.758942 191.909973,90.876976 
	C192.623047,91.774750 193.759354,92.589340 193.955780,93.588676 
	C194.300308,95.341438 193.914780,97.228226 194.156128,99.015526 
	C194.249695,99.708328 195.215500,100.283340 195.783951,100.912018 
	C196.319901,100.254272 197.283600,99.616913 197.316086,98.935181 
	C197.441559,96.301147 197.539932,93.605438 197.086884,91.031548 
	C196.882385,89.869766 195.370224,88.079063 194.432526,88.067238 
	C191.669235,88.032410 188.896530,88.744095 186.066315,90.032440 
M171.385590,101.053299 
	C176.459015,100.798363 177.710480,97.545586 177.436081,93.210213 
	C177.210205,89.641380 175.198288,87.819252 171.633408,87.761253 
	C167.731827,87.697769 165.255692,89.466171 164.906357,93.482826 
	C164.548080,97.602455 165.692017,100.773682 171.385590,101.053299 
M98.407013,90.150490 
	C100.088585,91.070534 101.770149,91.990570 103.467827,92.919418 
	C101.733810,95.716682 96.194687,94.755966 97.431953,100.263596 
	C102.172394,97.923271 106.336525,95.867455 111.883560,93.128914 
	C106.150932,90.305405 101.967621,88.244987 96.911736,85.754799 
	C97.328064,87.732430 97.543617,88.756363 98.407013,90.150490 
M119.858665,98.333763 
	C122.985077,96.795609 126.111496,95.257462 130.494827,93.100922 
	C124.768616,90.302177 120.608673,88.268959 116.448730,86.235741 
	C116.052605,86.787674 115.656471,87.339615 115.260345,87.891556 
	C117.469749,89.747337 119.679146,91.603119 121.878937,93.467598 
	C116.083893,96.656433 116.083893,96.656433 116.452766,99.907890 
	C117.399338,99.498779 118.301826,99.108719 119.858665,98.333763 
M260.398407,91.925293 
	C261.451874,91.102249 262.505371,90.279205 263.380005,89.595871 
	C262.129547,88.082314 261.274170,86.626762 260.022522,85.715538 
	C259.428284,85.282913 257.725098,85.517876 257.128296,86.085487 
	C253.683136,89.362053 258.087585,92.834213 257.101990,96.325356 
	C256.806396,97.372398 257.356995,99.414230 258.150208,99.848160 
	C259.596558,100.639412 261.513763,100.569908 262.666931,100.763969 
	C261.658142,97.301704 260.999451,95.041092 260.398407,91.925293 
M209.074692,95.324944 
	C209.950882,95.990173 210.827057,96.655411 211.703232,97.320648 
	C211.524811,97.672806 211.346390,98.024963 211.167984,98.377121 
	C209.437271,98.377121 207.706573,98.377121 204.853165,98.377121 
	C208.101944,101.727142 211.269714,102.123383 213.384262,99.923866 
	C218.672226,94.423355 210.698181,94.045227 208.731125,90.533852 
	C211.001953,90.412895 212.576035,90.329056 214.812027,90.209961 
	C212.202576,86.823975 209.540466,87.095596 207.306259,89.017578 
	C204.757401,91.210258 205.796448,93.419952 209.074692,95.324944 
M150.297165,100.368607 
	C155.729492,101.575829 156.285004,101.341713 156.764206,98.010246 
	C155.124146,97.743675 152.978439,98.004852 152.026291,97.061432 
	C151.147675,96.190849 150.829803,93.303642 151.545212,92.592316 
	C152.833878,91.311035 155.079391,90.992149 158.005936,89.849159 
	C156.209961,89.017914 154.737701,87.714302 153.530136,87.925331 
	C151.775513,88.231941 148.945374,89.477898 148.810425,90.593781 
	C148.444046,93.622986 149.254410,96.794518 150.297165,100.368607 
M247.041656,100.090683 
	C247.041656,94.175644 247.041656,88.260605 247.041656,82.345573 
	C246.600449,82.186844 246.159256,82.028122 245.718048,81.869392 
	C245.125290,82.717262 244.049850,83.548454 244.019882,84.415771 
	C243.853546,89.229652 243.840775,94.056770 244.054672,98.866943 
	C244.085312,99.555962 245.631012,100.177597 247.041656,100.090683 
M271.867310,91.690109 
	C271.868225,94.009583 271.714355,96.345230 271.954285,98.639717 
	C272.037872,99.439285 273.093872,100.137169 273.705780,100.881500 
	C274.180206,100.159981 275.020416,99.459770 275.063873,98.713158 
	C275.227356,95.906105 275.225525,93.078674 275.069458,90.270897 
	C275.027527,89.516487 274.220184,88.804619 273.764191,88.073227 
	C273.132324,88.968620 272.500427,89.864006 271.867310,91.690109 
z"/>
<path fill="#1B1B96" opacity="1.000000" stroke="none" 
	d="
M321.000000,64.555832 
	C314.315369,76.809441 300.806183,80.900467 288.097290,74.964043 
	C283.980652,73.041130 283.136627,69.523941 285.557098,62.909389 
	C287.323334,63.719936 288.982880,64.842911 290.801147,65.240929 
	C294.624786,66.077934 298.559998,67.095642 302.392059,66.902184 
	C304.213135,66.810249 306.860443,64.362480 307.344727,62.513424 
	C307.723206,61.068527 305.766083,58.195122 304.102692,57.199024 
	C300.427490,54.998154 296.202484,53.740761 292.351898,51.800522 
	C288.115875,49.666065 285.398163,46.262924 284.747772,41.369061 
	C283.686157,33.380184 287.175568,26.908588 294.988525,24.811810 
	C299.657837,23.558699 304.874176,23.341269 309.700867,23.900074 
	C318.045898,24.866215 319.234619,27.177896 317.378387,36.195911 
	C316.137421,35.803940 314.938629,35.446613 313.754333,35.046360 
	C311.866577,34.408360 310.030853,33.549694 308.098297,33.123714 
	C302.532440,31.896833 297.836060,33.392998 297.431519,36.768871 
	C296.817749,41.890354 301.194946,42.754143 304.664734,44.177505 
	C311.115601,46.823757 318.084137,48.782764 320.703552,56.816750 
	C321.000000,59.370556 321.000000,61.741116 321.000000,64.555832 
z"/>
<path fill="#1B1A96" opacity="1.000000" stroke="none" 
	d="
M1.000000,35.428463 
	C6.805941,24.126837 16.154518,21.668921 27.447065,23.908762 
	C35.197350,25.446005 36.443146,27.617413 34.234451,36.361958 
	C32.541988,35.690811 30.967262,34.788651 29.280233,34.455944 
	C25.907301,33.790749 22.442795,32.954197 19.076714,33.163445 
	C17.442123,33.265057 14.979921,35.367561 14.660240,36.926712 
	C14.351112,38.434391 15.872919,41.163589 17.361839,42.028728 
	C21.204197,44.261341 25.573681,45.563046 29.549084,47.595554 
	C36.831848,51.319023 39.764301,58.381664 36.985477,66.011833 
	C36.067223,68.533203 34.295513,71.062309 32.244488,72.795601 
	C24.699257,79.171997 8.782552,78.740074 1.320578,72.141335 
	C1.000000,69.629440 1.000000,67.258888 1.328403,64.336990 
	C3.309867,64.110344 4.972065,64.394821 6.614152,64.767838 
	C10.435675,65.635925 14.276855,67.303879 18.052319,67.157562 
	C20.335659,67.069069 22.511003,64.193939 24.734867,62.570847 
	C23.136719,60.505249 21.658312,58.327633 19.881969,56.428726 
	C19.163160,55.660313 17.819874,55.416420 16.716743,55.076809 
	C9.308084,52.795929 3.399685,48.863201 1.000000,41.000000 
	C1.000000,39.285641 1.000000,37.571285 1.000000,35.428463 
z"/>
<path fill="#181895" opacity="1.000000" stroke="none" 
	d="
M117.562500,0.999998 
	C118.997841,2.652777 120.849571,4.297979 120.864319,5.959486 
	C121.058578,27.845064 120.944450,49.733177 121.049889,71.619965 
	C121.064987,74.754013 120.126808,76.335670 116.881004,76.209358 
	C114.566734,76.119301 112.249878,76.095673 109.448830,75.460724 
	C108.965202,50.572330 108.966927,26.265608 108.968658,1.958887 
	C108.968658,1.958887 108.988205,2.002966 109.285103,2.018008 
	C110.054665,1.688699 110.527328,1.344348 111.000000,0.999999 
	C113.041664,1.000000 115.083336,1.000000 117.562500,0.999998 
z"/>
<path fill="#F9F9FB" opacity="1.000000" stroke="none" 
	d="
M1.000000,41.468624 
	C3.399685,48.863201 9.308084,52.795929 16.716743,55.076809 
	C17.819874,55.416420 19.163160,55.660313 19.881969,56.428726 
	C21.658312,58.327633 23.136719,60.505249 24.734867,62.570847 
	C22.511003,64.193939 20.335659,67.069069 18.052319,67.157562 
	C14.276855,67.303879 10.435675,65.635925 6.614152,64.767838 
	C4.972065,64.394821 3.309867,64.110344 1.328403,63.892822 
	C1.000000,56.645748 1.000000,49.291500 1.000000,41.468624 
z"/>
<path fill="#262699" opacity="1.000000" stroke="none" 
	d="
M306.416656,106.000000 
	C305.439880,104.167526 304.574921,102.363647 304.399628,100.495079 
	C304.197510,98.340172 304.766022,96.124283 304.713684,93.941734 
	C304.592194,88.874214 305.619141,87.695152 310.523041,87.860176 
	C312.124420,87.914070 313.720215,88.132881 316.044312,88.341370 
	C314.300964,91.622459 312.855682,94.342583 311.408966,97.065445 
	C312.234375,98.147415 313.944397,100.049850 315.080719,102.248756 
	C315.248749,102.573845 312.703949,104.300804 311.207153,105.689590 
	C309.611115,106.000000 308.222198,106.000000 306.416656,106.000000 
z"/>
<path fill="#4040A3" opacity="1.000000" stroke="none" 
	d="
M110.666672,0.999999 
	C110.527328,1.344348 110.054665,1.688699 109.269379,1.997431 
	C109.035629,1.804733 109.114502,1.647653 109.096687,1.245287 
	C109.444443,1.000000 109.888893,1.000000 110.666672,0.999999 
z"/>
<path fill="#1B1A96" opacity="1.000000" stroke="none" 
	d="
M45.315697,53.629726 
	C45.283508,52.187267 45.256882,51.188480 45.269897,50.190208 
	C45.547474,28.902895 63.588345,17.007484 83.397072,25.158119 
	C94.441040,29.702345 96.893005,39.483181 96.726921,49.802975 
	C96.352661,73.056671 80.674858,80.253036 61.844547,76.227913 
	C50.273373,73.754486 46.203239,64.921600 45.315697,53.629726 
M64.752861,64.988037 
	C72.166031,68.018295 78.242546,66.397240 80.879776,60.246170 
	C83.759941,53.528484 83.768623,46.500183 80.836899,39.841366 
	C77.472565,32.199932 66.637344,31.577753 61.920620,38.495510 
	C57.314491,45.251045 58.426373,58.524277 64.752861,64.988037 
z"/>
<path fill="#191895" opacity="1.000000" stroke="none" 
	d="
M273.018433,26.008327 
	C273.128693,39.357147 273.238983,52.705967 272.923828,66.757812 
	C272.603973,69.958122 272.709564,72.455414 272.815155,74.952713 
	C269.834961,75.312096 266.708771,76.341438 263.938507,75.737648 
	C262.627014,75.451797 261.996307,72.042412 261.090240,70.118462 
	C243.576599,82.110245 230.001190,78.455795 228.158463,60.295982 
	C228.258560,59.531536 228.140579,59.267284 228.022598,59.003033 
	C227.938202,48.298492 227.853790,37.593952 228.119141,26.327717 
	C228.719070,25.564316 228.896591,25.311588 229.001495,25.007835 
	C232.082016,24.739721 235.209641,24.066774 238.218201,24.416910 
	C239.312744,24.544292 240.887787,27.085472 240.936584,28.568377 
	C241.204865,36.719883 241.006073,44.885513 241.109818,53.044479 
	C241.139114,55.349163 241.371826,57.724937 241.991638,59.933277 
	C243.328079,64.694817 247.678970,66.696991 252.214493,64.909439 
	C256.971558,63.034588 260.010498,58.581993 260.012421,53.468925 
	C260.015381,45.641735 260.309784,37.799049 259.902710,29.993071 
	C259.651703,25.179422 261.553589,23.650440 265.926331,24.054228 
	C267.734528,24.221199 269.547424,24.337009 271.791199,24.957529 
	C272.429047,25.712246 272.693787,25.902031 273.018433,26.008327 
z"/>
<path fill="#191895" opacity="1.000000" stroke="none" 
	d="
M163.023514,24.932335 
	C165.428619,24.660093 168.262466,23.485659 170.118973,24.367880 
	C171.997253,25.260462 172.908127,28.188776 174.334686,30.365612 
	C177.220200,26.874115 180.942566,23.093859 187.539902,23.760447 
	C190.983765,24.108416 192.429871,24.710583 192.296585,28.163506 
	C192.189880,30.927567 192.275009,33.699036 192.275009,37.915249 
	C185.192322,34.216038 180.344894,36.114403 177.041321,41.702976 
	C176.008011,43.451012 175.221161,45.622135 175.166901,47.622524 
	C174.955185,55.427555 174.843658,63.252129 175.181686,71.048332 
	C175.357925,75.113205 173.807938,76.542633 170.078247,76.280365 
	C167.612762,76.106995 165.153534,75.845123 162.652832,75.097473 
	C162.381744,74.039772 162.149323,73.507469 161.916885,72.975166 
	C161.838654,57.616215 161.760422,42.257259 162.063141,26.332491 
	C162.637238,25.488560 162.830383,25.210447 163.023514,24.932335 
z"/>
<path fill="#181796" opacity="1.000000" stroke="none" 
	d="
M213.117584,75.497337 
	C209.585434,75.633942 206.053284,75.770554 202.230469,75.275574 
	C201.651093,73.766144 201.362366,72.888306 201.073608,72.010468 
	C201.003525,57.407864 201.001694,42.804337 200.805481,28.203428 
	C200.766449,25.299959 202.194229,24.375498 204.593597,24.151690 
	C206.075836,24.013428 207.579391,24.121996 209.071411,24.066864 
	C212.680786,23.933493 214.377365,25.203285 214.315475,29.258276 
	C214.092590,43.863773 214.210602,58.474472 213.854538,73.723907 
	C213.378693,74.742188 213.248138,75.119759 213.117584,75.497337 
z"/>
<path fill="#181794" opacity="1.000000" stroke="none" 
	d="
M134.904602,73.981628 
	C134.832108,58.285282 134.759613,42.588932 135.304993,26.447693 
	C139.858200,25.999880 143.793533,25.996956 147.728882,25.994034 
	C147.825546,41.583282 147.989258,57.173004 147.879364,72.760796 
	C147.871399,73.890289 146.010712,75.743729 144.772491,75.973625 
	C142.219406,76.447632 139.504822,76.051712 136.385498,75.571732 
	C135.577744,74.747047 135.241165,74.364342 134.904602,73.981628 
z"/>
<path fill="#1C1B96" opacity="1.000000" stroke="none" 
	d="
M149.069946,10.010348 
	C148.234451,16.191666 146.497406,17.278114 139.851700,17.103569 
	C135.059753,16.977713 133.499741,14.380898 133.502319,10.131954 
	C133.505325,5.163018 135.323334,3.254195 140.313599,2.970544 
	C146.385895,2.625390 148.263412,4.044420 149.069946,10.010348 
z"/>
<path fill="#1B1B96" opacity="1.000000" stroke="none" 
	d="
M203.651505,16.781454 
	C199.755341,14.090666 198.614395,8.693827 200.856796,5.420423 
	C202.617706,2.849902 209.655869,1.979596 212.826111,3.940358 
	C215.285965,5.461749 216.384415,11.412826 214.481415,14.356825 
	C211.884277,18.374676 207.738434,16.835556 203.651505,16.781454 
z"/>
<path fill="#4040A3" opacity="1.000000" stroke="none" 
	d="
M108.577003,2.043414 
	C108.966927,26.265608 108.965202,50.572330 109.007431,75.332214 
	C108.441879,74.429352 107.308083,73.075981 107.301178,71.716888 
	C107.189629,49.760742 107.205627,27.803829 107.261688,5.847266 
	C107.264854,4.606712 107.863731,3.367680 108.577003,2.043414 
z"/>
<path fill="#35359E" opacity="1.000000" stroke="none" 
	d="
M284.300659,90.319748 
	C287.245270,89.230560 290.205750,88.089470 293.092468,88.252754 
	C294.110718,88.310364 295.606903,91.521042 295.708405,93.357132 
	C295.846802,95.861107 294.859314,98.427315 294.354553,100.966843 
	C293.679108,98.753403 293.097534,96.504997 292.291473,94.340187 
	C291.839600,93.126549 291.016083,92.051300 290.360016,90.913696 
	C289.544495,92.111969 288.473663,93.213104 287.972260,94.530884 
	C287.185181,96.599503 286.782196,98.814262 286.216614,100.967133 
	C285.572693,98.729965 284.830017,96.514671 284.327301,94.246201 
	C284.082703,93.142563 284.286591,91.939560 284.300659,90.319748 
z"/>
<path fill="#33329D" opacity="1.000000" stroke="none" 
	d="
M226.886169,95.646347 
	C227.698212,96.691376 228.485748,97.296898 229.273300,97.902420 
	C229.931198,97.027527 230.963837,96.229401 231.162369,95.260391 
	C231.489731,93.662514 231.072205,91.915237 231.376251,90.308044 
	C231.539612,89.444504 232.551666,88.741524 233.180756,87.966080 
	C233.753906,88.796722 234.770569,89.601143 234.821472,90.462654 
	C235.016159,93.756882 234.900192,97.069466 234.900192,100.334381 
	C232.478928,100.601807 230.255936,101.394707 228.369675,100.901031 
	C226.500214,100.411743 224.218903,98.961693 223.485458,97.321609 
	C222.611389,95.367050 223.032043,92.748405 223.225067,90.445412 
	C223.297867,89.576698 224.302475,88.786087 224.882294,87.959869 
	C225.539261,88.879440 226.536240,89.720482 226.771164,90.737549 
	C227.099396,92.158463 226.858856,93.710762 226.886169,95.646347 
z"/>
<path fill="#212196" opacity="1.000000" stroke="none" 
	d="
M186.096924,89.598022 
	C188.896530,88.744095 191.669235,88.032410 194.432526,88.067238 
	C195.370224,88.079063 196.882385,89.869766 197.086884,91.031548 
	C197.539932,93.605438 197.441559,96.301147 197.316086,98.935181 
	C197.283600,99.616913 196.319901,100.254272 195.783951,100.912018 
	C195.215500,100.283340 194.249695,99.708328 194.156128,99.015526 
	C193.914780,97.228226 194.300308,95.341438 193.955780,93.588676 
	C193.759354,92.589340 192.623047,91.774750 191.909973,90.876976 
	C191.073517,91.758942 189.753922,92.525246 189.508865,93.548798 
	C189.096222,95.272423 189.512817,97.178932 189.274872,98.967850 
	C189.181198,99.672211 188.266602,100.267395 187.725830,100.912292 
	C187.174255,100.261711 186.187088,99.637115 186.146454,98.956039 
	C185.969482,95.990471 186.067917,93.008469 186.096924,89.598022 
z"/>
<path fill="#1F1E95" opacity="1.000000" stroke="none" 
	d="
M170.980499,101.052826 
	C165.692017,100.773682 164.548080,97.602455 164.906357,93.482826 
	C165.255692,89.466171 167.731827,87.697769 171.633408,87.761253 
	C175.198288,87.819252 177.210205,89.641380 177.436081,93.210213 
	C177.710480,97.545586 176.459015,100.798363 170.980499,101.052826 
M173.978836,92.862976 
	C172.935410,92.016380 171.948486,90.628609 170.828903,90.511765 
	C170.071411,90.432693 168.313934,92.264229 168.428635,93.026901 
	C168.703796,94.856659 169.517319,97.803856 170.652313,98.079178 
	C173.939835,98.876671 174.083878,96.059387 173.978836,92.862976 
z"/>
<path fill="#D13520" opacity="1.000000" stroke="none" 
	d="
M98.083099,89.965393 
	C97.543617,88.756363 97.328064,87.732430 96.911736,85.754799 
	C101.967621,88.244987 106.150932,90.305405 111.883560,93.128914 
	C106.336525,95.867455 102.172394,97.923271 97.431953,100.263596 
	C96.194687,94.755966 101.733810,95.716682 103.467827,92.919418 
	C101.770149,91.990570 100.088585,91.070534 98.083099,89.965393 
z"/>
<path fill="#D13622" opacity="1.000000" stroke="none" 
	d="
M119.531494,98.526215 
	C118.301826,99.108719 117.399338,99.498779 116.452766,99.907890 
	C116.083893,96.656433 116.083893,96.656433 121.883743,93.463257 
	C119.679146,91.603119 117.469749,89.747337 115.260345,87.891556 
	C115.656471,87.339615 116.052605,86.787674 116.448730,86.235741 
	C120.608673,88.268959 124.768616,90.302177 130.494827,93.100922 
	C126.111496,95.257462 122.985077,96.795609 119.531494,98.526215 
z"/>
<path fill="#232495" opacity="1.000000" stroke="none" 
	d="
M260.369568,92.352890 
	C260.999451,95.041092 261.658142,97.301704 262.666931,100.763969 
	C261.513763,100.569908 259.596558,100.639412 258.150208,99.848160 
	C257.356995,99.414230 256.806396,97.372398 257.101990,96.325356 
	C258.087585,92.834213 253.683136,89.362053 257.128296,86.085487 
	C257.725098,85.517876 259.428284,85.282913 260.022522,85.715538 
	C261.274170,86.626762 262.129547,88.082314 263.380005,89.595871 
	C262.505371,90.279205 261.451874,91.102249 260.369568,92.352890 
z"/>
<path fill="#212196" opacity="1.000000" stroke="none" 
	d="
M208.721146,95.188477 
	C205.796448,93.419952 204.757401,91.210258 207.306259,89.017578 
	C209.540466,87.095596 212.202576,86.823975 214.812027,90.209961 
	C212.576035,90.329056 211.001953,90.412895 208.731125,90.533852 
	C210.698181,94.045227 218.672226,94.423355 213.384262,99.923866 
	C211.269714,102.123383 208.101944,101.727142 204.853165,98.377121 
	C207.706573,98.377121 209.437271,98.377121 211.167984,98.377121 
	C211.346390,98.024963 211.524811,97.672806 211.703232,97.320648 
	C210.827057,96.655411 209.950882,95.990173 208.721146,95.188477 
z"/>
<path fill="#212196" opacity="1.000000" stroke="none" 
	d="
M149.947708,100.139114 
	C149.254410,96.794518 148.444046,93.622986 148.810425,90.593781 
	C148.945374,89.477898 151.775513,88.231941 153.530136,87.925331 
	C154.737701,87.714302 156.209961,89.017914 158.005936,89.849159 
	C155.079391,90.992149 152.833878,91.311035 151.545212,92.592316 
	C150.829803,93.303642 151.147675,96.190849 152.026291,97.061432 
	C152.978439,98.004852 155.124146,97.743675 156.764206,98.010246 
	C156.285004,101.341713 155.729492,101.575829 149.947708,100.139114 
z"/>
<path fill="#181792" opacity="1.000000" stroke="none" 
	d="
M246.758606,100.460548 
	C245.631012,100.177597 244.085312,99.555962 244.054672,98.866943 
	C243.840775,94.056770 243.853546,89.229652 244.019882,84.415771 
	C244.049850,83.548454 245.125290,82.717262 245.718048,81.869392 
	C246.159256,82.028122 246.600449,82.186844 247.041656,82.345573 
	C247.041656,88.260605 247.041656,94.175644 246.758606,100.460548 
z"/>
<path fill="#191893" opacity="1.000000" stroke="none" 
	d="
M271.867920,91.224754 
	C272.500427,89.864006 273.132324,88.968620 273.764191,88.073227 
	C274.220184,88.804619 275.027527,89.516487 275.069458,90.270897 
	C275.225525,93.078674 275.227356,95.906105 275.063873,98.713158 
	C275.020416,99.459770 274.180206,100.159981 273.705780,100.881500 
	C273.093872,100.137169 272.037872,99.439285 271.954285,98.639717 
	C271.714355,96.345230 271.868225,94.009583 271.867920,91.224754 
z"/>
<path fill="#101090" opacity="1.000000" stroke="none" 
	d="
M147.618591,25.635668 
	C143.793533,25.996956 139.858200,25.999880 135.462479,26.001965 
	C138.992081,22.671320 143.241699,23.827459 147.618591,25.635668 
z"/>
<path fill="#050489" opacity="1.000000" stroke="none" 
	d="
M273.024719,74.553268 
	C272.709564,72.455414 272.603973,69.958122 272.798859,67.209656 
	C273.144348,69.356941 273.189301,71.755386 273.024719,74.553268 
z"/>
<path fill="#0E0D8B" opacity="1.000000" stroke="none" 
	d="
M200.993057,72.383652 
	C201.362366,72.888306 201.651093,73.766144 201.912994,75.011887 
	C201.561615,74.505470 201.237045,73.631157 200.993057,72.383652 
z"/>
<path fill="#101090" opacity="1.000000" stroke="none" 
	d="
M134.839447,74.269943 
	C135.241165,74.364342 135.577744,74.747047 135.953903,75.396622 
	C135.587097,75.295074 135.180679,74.926659 134.839447,74.269943 
z"/>
<path fill="#030489" opacity="1.000000" stroke="none" 
	d="
M161.834534,73.318230 
	C162.149323,73.507469 162.381744,74.039772 162.428894,74.751007 
	C162.079803,74.507057 161.916000,74.084175 161.834534,73.318230 
z"/>
<path fill="#090B8E" opacity="1.000000" stroke="none" 
	d="
M213.409271,75.349991 
	C213.248138,75.119759 213.378693,74.742188 213.750946,74.182755 
	C213.895401,74.401482 213.798172,74.802055 213.409271,75.349991 
z"/>
<path fill="#09078C" opacity="1.000000" stroke="none" 
	d="
M227.954910,59.252174 
	C228.140579,59.267284 228.258560,59.531536 228.220490,59.891045 
	C228.005386,59.824638 227.946304,59.662979 227.954910,59.252174 
z"/>
<path fill="#050489" opacity="1.000000" stroke="none" 
	d="
M273.013367,25.716610 
	C272.693787,25.902031 272.429047,25.712246 272.110291,25.219276 
	C272.333740,25.141352 272.671051,25.283123 273.013367,25.716610 
z"/>
<path fill="#09078C" opacity="1.000000" stroke="none" 
	d="
M228.723480,25.023399 
	C228.896591,25.311588 228.719070,25.564316 228.263184,25.877653 
	C228.186798,25.672512 228.316147,25.355738 228.723480,25.023399 
z"/>
<path fill="#030489" opacity="1.000000" stroke="none" 
	d="
M162.727875,24.965405 
	C162.830383,25.210447 162.637238,25.488560 162.217102,25.886028 
	C162.137482,25.669748 162.284866,25.334112 162.727875,24.965405 
z"/>
<path fill="#FAFAFC" opacity="1.000000" stroke="none" 
	d="
M64.429443,64.786133 
	C58.426373,58.524277 57.314491,45.251045 61.920620,38.495510 
	C66.637344,31.577753 77.472565,32.199932 80.836899,39.841366 
	C83.768623,46.500183 83.759941,53.528484 80.879776,60.246170 
	C78.242546,66.397240 72.166031,68.018295 64.429443,64.786133 
z"/>
<path fill="#EAEBF2" opacity="1.000000" stroke="none" 
	d="
M174.020462,93.244453 
	C174.083878,96.059387 173.939835,98.876671 170.652313,98.079178 
	C169.517319,97.803856 168.703796,94.856659 168.428635,93.026901 
	C168.313934,92.264229 170.071411,90.432693 170.828903,90.511765 
	C171.948486,90.628609 172.935410,92.016380 174.020462,93.244453 
z"/>
</svg>